<svg xmlns="http://www.w3.org/2000/svg" xmlns:xlink="http://www.w3.org/1999/xlink" width="300" zoomAndPan="magnify" viewBox="0 0 300 525.000007" height="350" preserveAspectRatio="xMidYMid meet" version="1.0">
	<defs>
		<clipPath id="3d4bf76245">
			<path d="M 0.285156 0 L 299.714844 0 L 299.714844 524 L 0.285156 524 Z M 0.285156 0 " clip-rule="nonzero" />
		</clipPath>
		<clipPath id="1626e697f5">
			<path d="M 25.09375 7 L 275 7 L 275 517 L 25.09375 517 Z M 25.09375 7 " clip-rule="nonzero" />
		</clipPath>
		<clipPath id="167f8177b8">
			<path d="M 239.507812 7.402344 L 60.492188 7.402344 C 41.09375 7.402344 25.347656 23.148438 25.347656 42.550781 L 25.347656 481.324219 C 25.347656 500.726562 41.09375 516.472656 60.492188 516.472656 L 239.507812 516.472656 C 258.90625 516.472656 274.652344 500.726562 274.652344 481.324219 L 274.652344 42.550781 C 274.652344 23.148438 258.90625 7.402344 239.507812 7.402344 Z M 179.917969 23.527344 C 181.683594 23.527344 183.070312 24.914062 183.070312 26.675781 C 183.070312 28.441406 181.683594 29.828125 179.917969 29.828125 C 178.15625 29.828125 176.769531 28.441406 176.769531 26.675781 C 176.769531 24.914062 178.28125 23.527344 179.917969 23.527344 Z M 133.433594 24.535156 L 163.667969 24.535156 C 164.800781 24.535156 165.808594 25.417969 165.808594 26.675781 C 165.808594 27.9375 164.800781 28.820312 163.667969 28.820312 L 133.433594 28.820312 C 132.300781 28.820312 131.292969 27.9375 131.292969 26.675781 C 131.292969 25.417969 132.300781 24.535156 133.433594 24.535156 Z M 261.804688 483.339844 C 261.804688 494.804688 252.480469 504.128906 241.019531 504.128906 L 59.234375 504.128906 C 47.769531 504.128906 38.449219 494.804688 38.449219 483.339844 L 38.449219 41.164062 C 38.449219 29.699219 47.769531 20.378906 59.234375 20.378906 L 86.320312 20.378906 L 86.320312 26.046875 C 86.320312 32.472656 91.609375 37.761719 98.035156 37.761719 L 202.21875 37.761719 C 208.640625 37.761719 213.933594 32.472656 213.933594 26.046875 L 213.933594 20.378906 L 240.890625 20.378906 C 252.355469 20.378906 261.679688 29.699219 261.679688 41.164062 L 261.679688 483.339844 Z M 261.804688 483.339844 " clip-rule="nonzero" />
		</clipPath>
		<clipPath id="563a9d8242">
			<path d="M 38 20 L 261.929688 20 L 261.929688 505 L 38 505 Z M 38 20 " clip-rule="nonzero" />
		</clipPath>
		<clipPath id="18c60e6213">
			<path d="M 240.890625 20.378906 L 213.933594 20.378906 L 213.933594 26.046875 C 213.933594 32.472656 208.640625 37.761719 202.21875 37.761719 L 98.160156 37.761719 C 91.734375 37.761719 86.445312 32.472656 86.445312 26.046875 L 86.445312 20.378906 L 59.234375 20.378906 C 47.769531 20.378906 38.449219 29.699219 38.449219 41.164062 L 38.449219 483.339844 C 38.449219 494.804688 47.769531 504.128906 59.234375 504.128906 L 240.890625 504.128906 C 252.355469 504.128906 261.679688 494.804688 261.679688 483.339844 L 261.679688 41.164062 C 261.804688 29.699219 252.480469 20.378906 240.890625 20.378906 Z M 240.890625 20.378906 " clip-rule="nonzero" />
		</clipPath>
		<clipPath id="4dcaa0469b">
			<path d="M 131 24 L 166 24 L 166 29 L 131 29 Z M 131 24 " clip-rule="nonzero" />
		</clipPath>
		<clipPath id="e679abcd66">
			<path d="M 163.667969 24.535156 L 133.433594 24.535156 C 132.300781 24.535156 131.292969 25.417969 131.292969 26.675781 C 131.292969 27.9375 132.300781 28.820312 133.433594 28.820312 L 163.667969 28.820312 C 164.800781 28.820312 165.808594 27.9375 165.808594 26.675781 C 165.808594 25.417969 164.800781 24.535156 163.667969 24.535156 Z M 163.667969 24.535156 " clip-rule="nonzero" />
		</clipPath>
		<clipPath id="337b6ea0e2">
			<path d="M 176.265625 23 L 183.824219 23 L 183.824219 30 L 176.265625 30 Z M 176.265625 23 " clip-rule="nonzero" />
		</clipPath>
		<clipPath id="0020d78576">
			<path d="M 179.917969 23.527344 C 179.050781 23.527344 178.304688 23.835938 177.691406 24.449219 C 177.074219 25.066406 176.769531 25.808594 176.769531 26.675781 C 176.769531 27.546875 177.074219 28.289062 177.691406 28.90625 C 178.304688 29.519531 179.050781 29.828125 179.917969 29.828125 C 180.789062 29.828125 181.53125 29.519531 182.148438 28.90625 C 182.761719 28.289062 183.070312 27.546875 183.070312 26.675781 C 183.070312 25.808594 182.761719 25.066406 182.148438 24.449219 C 181.53125 23.835938 180.789062 23.527344 179.917969 23.527344 Z M 179.917969 23.527344 " clip-rule="nonzero" />
		</clipPath>
		<clipPath id="88d78bc3b8">
			<path d="M 20.054688 72 L 23 72 L 23 94.328125 L 20.054688 94.328125 Z M 20.054688 72 " clip-rule="nonzero" />
		</clipPath>
		<clipPath id="7d29723ea6">
			<path d="M 20.054688 75.554688 L 20.054688 91.304688 C 20.054688 92.816406 21.316406 94.074219 22.828125 94.074219 L 22.828125 72.910156 C 21.316406 72.910156 20.054688 74.042969 20.054688 75.554688 Z M 20.054688 75.554688 " clip-rule="nonzero" />
		</clipPath>
		<clipPath id="fdacd8d505">
			<path d="M 20.054688 109.445312 L 23 109.445312 L 23 148 L 20.054688 148 Z M 20.054688 109.445312 " clip-rule="nonzero" />
		</clipPath>
		<clipPath id="91d10d91d0">
			<path d="M 20.054688 112.46875 L 20.054688 145.222656 C 20.054688 146.734375 21.316406 147.992188 22.828125 147.992188 L 22.828125 109.820312 C 21.316406 109.820312 20.054688 110.957031 20.054688 112.46875 Z M 20.054688 112.46875 " clip-rule="nonzero" />
		</clipPath>
		<clipPath id="4ab046de08">
			<path d="M 20.054688 156.054688 L 23 156.054688 L 23 195 L 20.054688 195 Z M 20.054688 156.054688 " clip-rule="nonzero" />
		</clipPath>
		<clipPath id="3b5d3730e6">
			<path d="M 20.054688 159.078125 L 20.054688 191.832031 C 20.054688 193.34375 21.316406 194.605469 22.828125 194.605469 L 22.828125 156.308594 C 21.316406 156.308594 20.054688 157.566406 20.054688 159.078125 Z M 20.054688 159.078125 " clip-rule="nonzero" />
		</clipPath>
		<clipPath id="27557154ec">
			<path d="M 277.046875 122.042969 L 280 122.042969 L 280 183.769531 L 277.046875 183.769531 Z M 277.046875 122.042969 " clip-rule="nonzero" />
		</clipPath>
		<clipPath id="70967d9c64">
			<path d="M 277.171875 122.417969 L 277.171875 183.769531 C 278.683594 183.769531 279.945312 182.511719 279.945312 181 L 279.945312 125.191406 C 279.945312 123.679688 278.683594 122.417969 277.171875 122.417969 Z M 277.171875 122.417969 " clip-rule="nonzero" />
		</clipPath>
		<clipPath id="62d84d3604">
			<path d="M 22.574219 4.882812 L 278 4.882812 L 278 519 L 22.574219 519 Z M 22.574219 4.882812 " clip-rule="nonzero" />
		</clipPath>
		<clipPath id="1791585fe4">
			<path d="M 277.171875 122.417969 L 277.171875 42.550781 C 277.171875 39.90625 276.921875 37.386719 276.417969 34.992188 C 276.164062 33.730469 275.914062 32.597656 275.535156 31.339844 C 275.03125 29.574219 274.277344 27.8125 273.519531 26.171875 C 273.015625 25.039062 272.386719 24.03125 271.757812 23.023438 C 271.125 22.015625 270.496094 21.007812 269.742188 20 C 268.605469 18.488281 267.472656 17.230469 266.214844 15.84375 C 265.332031 14.960938 264.449219 14.207031 263.566406 13.449219 C 257.015625 8.03125 248.703125 4.882812 239.632812 4.882812 L 60.492188 4.882812 C 51.421875 4.882812 42.984375 8.160156 36.558594 13.449219 C 35.675781 14.207031 34.792969 15.085938 33.914062 15.84375 C 32.652344 17.101562 31.394531 18.488281 30.386719 20 C 29.628906 21.007812 29 22.015625 28.371094 23.023438 C 27.738281 24.03125 27.109375 25.164062 26.605469 26.171875 C 25.722656 27.9375 25.09375 29.574219 24.464844 31.339844 C 24.085938 32.597656 23.835938 33.730469 23.582031 34.992188 C 23.078125 37.386719 22.828125 40.03125 22.828125 42.550781 L 22.828125 481.324219 C 22.828125 502.113281 39.707031 518.992188 60.492188 518.992188 L 239.507812 518.992188 C 260.292969 518.992188 277.171875 502.113281 277.171875 481.324219 Z M 274.652344 122.417969 L 274.652344 481.453125 C 274.652344 500.851562 258.90625 516.597656 239.507812 516.597656 L 60.492188 516.597656 C 41.09375 516.597656 25.347656 500.851562 25.347656 481.453125 L 25.347656 42.675781 C 25.347656 23.148438 41.09375 7.402344 60.492188 7.402344 L 239.507812 7.402344 C 258.90625 7.402344 274.652344 23.148438 274.652344 42.550781 Z M 274.652344 122.417969 " clip-rule="nonzero" />
		</clipPath>
	</defs>
	<!--
	<g clip-path="url(#3d4bf76245)">
	<path fill="#893eff" d="M 0.285156 0 L 299.714844 0 L 299.714844 1055.488281 L 0.285156 1055.488281 Z M 0.285156 0 " fill-opacity="0" fill-rule="nonzero" />
	<path fill="#893eff" d="M 0.285156 0 L 299.714844 0 L 299.714844 524 L 0.285156 524 Z M 0.285156 0 " fill-opacity="0" fill-rule="nonzero" />
	<path fill="#893eff" d="M 0.285156 0 L 299.714844 0 L 299.714844 524 L 0.285156 524 Z M 0.285156 0 " fill-opacity="0" fill-rule="nonzero" />
	</g>
	-->
	<g clip-path="url(#1626e697f5)">
		<g clip-path="url(#167f8177b8)">
			<path fill="#000000" d="M 20.054688 4.882812 L 279.566406 4.882812 L 279.566406 518.867188 L 20.054688 518.867188 Z M 20.054688 4.882812 " fill-opacity="1" fill-rule="nonzero" />
		</g>
	</g>
	<g clip-path="url(#563a9d8242)">
		<g clip-path="url(#18c60e6213)">
			<path fill="#893eff" d="M 20.054688 4.882812 L 279.566406 4.882812 L 279.566406 518.867188 L 20.054688 518.867188 Z M 20.054688 4.882812 " fill-opacity="1" fill-rule="nonzero" />
		</g>
	</g>
	<g clip-path="url(#4dcaa0469b)">
		<g clip-path="url(#e679abcd66)">
			<path fill="#893eff" d="M 20.054688 4.882812 L 279.566406 4.882812 L 279.566406 518.867188 L 20.054688 518.867188 Z M 20.054688 4.882812 " fill-opacity="1" fill-rule="nonzero" />
		</g>
	</g>
	<g clip-path="url(#337b6ea0e2)">
		<g clip-path="url(#0020d78576)">
			<path fill="#893eff" d="M 20.054688 4.882812 L 279.566406 4.882812 L 279.566406 518.867188 L 20.054688 518.867188 Z M 20.054688 4.882812 " fill-opacity="1" fill-rule="nonzero" />
		</g>
	</g>
	<g clip-path="url(#88d78bc3b8)">
		<g clip-path="url(#7d29723ea6)">
			<path fill="#893eff" d="M 20.054688 4.882812 L 279.566406 4.882812 L 279.566406 518.867188 L 20.054688 518.867188 Z M 20.054688 4.882812 " fill-opacity="1" fill-rule="nonzero" />
		</g>
	</g>
	<g clip-path="url(#fdacd8d505)">
		<g clip-path="url(#91d10d91d0)">
			<path fill="#893eff" d="M 20.054688 4.882812 L 279.566406 4.882812 L 279.566406 518.867188 L 20.054688 518.867188 Z M 20.054688 4.882812 " fill-opacity="1" fill-rule="nonzero" />
		</g>
	</g>
	<g clip-path="url(#4ab046de08)">
		<g clip-path="url(#3b5d3730e6)">
			<path fill="#893eff" d="M 20.054688 4.882812 L 279.566406 4.882812 L 279.566406 518.867188 L 20.054688 518.867188 Z M 20.054688 4.882812 " fill-opacity="1" fill-rule="nonzero" />
		</g>
	</g>
	<g clip-path="url(#27557154ec)">
		<g clip-path="url(#70967d9c64)">
			<path fill="#893eff" d="M 20.054688 4.882812 L 279.566406 4.882812 L 279.566406 518.867188 L 20.054688 518.867188 Z M 20.054688 4.882812 " fill-opacity="1" fill-rule="nonzero" />
		</g>
	</g>
	<g clip-path="url(#62d84d3604)">
		<g clip-path="url(#1791585fe4)">
			<path fill="#893eff" d="M 20.054688 4.882812 L 279.566406 4.882812 L 279.566406 518.867188 L 20.054688 518.867188 Z M 20.054688 4.882812 " fill-opacity="1" fill-rule="nonzero" />
		</g>
	</g>
</svg>
