<svg xmlns="http://www.w3.org/2000/svg" xmlns:xlink="http://www.w3.org/1999/xlink" width="400" zoomAndPan="magnify" viewBox="0 0 300 525.000007" height="700" preserveAspectRatio="xMidYMid meet" version="1.0"><defs><clipPath id="59963c3ecb"><path d="M 0.285156 0 L 299.714844 0 L 299.714844 524 L 0.285156 524 Z M 0.285156 0 " clip-rule="nonzero"/></clipPath><clipPath id="2a3a580e5f"><path d="M 16.710938 0 L 283.195312 0 L 283.195312 524 L 16.710938 524 Z M 16.710938 0 " clip-rule="nonzero"/></clipPath></defs><g clip-path="url(#59963c3ecb)"><path fill="#ffffff" d="M 0.285156 0 L 299.714844 0 L 299.714844 524 L 0.285156 524 Z M 0.285156 0 " fill-opacity="1" fill-rule="nonzero"/><path fill="#ffffff" d="M 0.285156 0 L 299.714844 0 L 299.714844 524 L 0.285156 524 Z M 0.285156 0 " fill-opacity="1" fill-rule="nonzero"/></g><g clip-path="url(#2a3a580e5f)"><path fill="#000000" d="M 59.011719 3.878906 L 72.085938 3.878906 L 72.085938 5.332031 C 72.085938 12.4375 77.84375 18.191406 84.941406 18.191406 L 219.589844 18.191406 C 226.691406 18.191406 232.445312 12.4375 232.445312 5.332031 L 232.445312 3.878906 L 245.523438 3.878906 C 264.15625 3.878906 279.316406 19.046875 279.316406 37.6875 L 279.316406 465.816406 L 25.214844 465.816406 L 25.214844 37.6875 C 25.214844 19.046875 40.375 3.878906 59.011719 3.878906 Z M 245.523438 0 L 59.011719 0 C 38.238281 0 21.335938 16.90625 21.335938 37.6875 L 21.335938 126.828125 L 18.355469 126.828125 C 17.449219 126.828125 16.710938 127.5625 16.710938 128.46875 L 16.710938 182.894531 C 16.710938 183.800781 17.449219 184.535156 18.355469 184.535156 L 21.335938 184.535156 L 21.335938 188.902344 L 18.785156 188.902344 C 17.640625 188.902344 16.710938 189.832031 16.710938 190.976562 L 16.710938 244.539062 C 16.710938 245.683594 17.640625 246.613281 18.785156 246.613281 L 21.335938 246.613281 L 21.335938 486.320312 C 21.335938 507.101562 38.238281 524.003906 59.011719 524.003906 L 245.523438 524.003906 C 266.296875 524.003906 283.195312 507.101562 283.195312 486.320312 L 283.195312 37.6875 C 283.195312 16.90625 266.296875 0 245.523438 0 " fill-opacity="1" fill-rule="nonzero"/></g></svg>