<svg xmlns="http://www.w3.org/2000/svg" xmlns:xlink="http://www.w3.org/1999/xlink" width="320" zoomAndPan="magnify" viewBox="0 0 240 52.499999" height="70" preserveAspectRatio="xMidYMid meet" version="1.0"><defs><g/><clipPath id="42700315b7"><path d="M 1.132812 0 L 238.867188 0 L 238.867188 52.003906 L 1.132812 52.003906 Z M 1.132812 0 " clip-rule="nonzero"/></clipPath><clipPath id="1d7509b47e"><path d="M 21 11 L 37 11 L 37 27 L 21 27 Z M 21 11 " clip-rule="nonzero"/></clipPath><clipPath id="53f73ae533"><path d="M 6.332031 8.703125 L 41.546875 3.078125 L 47.640625 41.226562 L 12.425781 46.851562 Z M 6.332031 8.703125 " clip-rule="nonzero"/></clipPath><clipPath id="f489a0046d"><path d="M 6.332031 8.703125 L 41.546875 3.078125 L 47.640625 41.226562 L 12.425781 46.851562 Z M 6.332031 8.703125 " clip-rule="nonzero"/></clipPath><clipPath id="cf2c4e0e3b"><path d="M 6.332031 8.703125 L 41.546875 3.078125 L 47.640625 41.226562 L 12.425781 46.851562 Z M 6.332031 8.703125 " clip-rule="nonzero"/></clipPath><clipPath id="b87a2b5c74"><path d="M 30 16 L 46 16 L 46 32 L 30 32 Z M 30 16 " clip-rule="nonzero"/></clipPath><clipPath id="f56bbf2ed0"><path d="M 6.332031 8.703125 L 41.546875 3.078125 L 47.640625 41.226562 L 12.425781 46.851562 Z M 6.332031 8.703125 " clip-rule="nonzero"/></clipPath><clipPath id="21cf1dd6f1"><path d="M 6.332031 8.703125 L 41.546875 3.078125 L 47.640625 41.226562 L 12.425781 46.851562 Z M 6.332031 8.703125 " clip-rule="nonzero"/></clipPath><clipPath id="f8cf02da05"><path d="M 6.332031 8.703125 L 41.546875 3.078125 L 47.640625 41.226562 L 12.425781 46.851562 Z M 6.332031 8.703125 " clip-rule="nonzero"/></clipPath><clipPath id="dc7d481cb1"><path d="M 12 33 L 36 33 L 36 41 L 12 41 Z M 12 33 " clip-rule="nonzero"/></clipPath><clipPath id="25d9ba4a30"><path d="M 6.332031 8.703125 L 41.546875 3.078125 L 47.640625 41.226562 L 12.425781 46.851562 Z M 6.332031 8.703125 " clip-rule="nonzero"/></clipPath><clipPath id="505a8bb786"><path d="M 6.332031 8.703125 L 41.546875 3.078125 L 47.640625 41.226562 L 12.425781 46.851562 Z M 6.332031 8.703125 " clip-rule="nonzero"/></clipPath><clipPath id="09708d281c"><path d="M 6.332031 8.703125 L 41.546875 3.078125 L 47.640625 41.226562 L 12.425781 46.851562 Z M 6.332031 8.703125 " clip-rule="nonzero"/></clipPath><clipPath id="0c9e49e9e6"><path d="M 7 5 L 38 5 L 38 47 L 7 47 Z M 7 5 " clip-rule="nonzero"/></clipPath><clipPath id="9f428f044b"><path d="M 6.332031 8.703125 L 41.546875 3.078125 L 47.640625 41.226562 L 12.425781 46.851562 Z M 6.332031 8.703125 " clip-rule="nonzero"/></clipPath><clipPath id="807299aa8c"><path d="M 6.332031 8.703125 L 41.546875 3.078125 L 47.640625 41.226562 L 12.425781 46.851562 Z M 6.332031 8.703125 " clip-rule="nonzero"/></clipPath><clipPath id="452476010f"><path d="M 6.332031 8.703125 L 41.546875 3.078125 L 47.640625 41.226562 L 12.425781 46.851562 Z M 6.332031 8.703125 " clip-rule="nonzero"/></clipPath><clipPath id="317687d39a"><path d="M 172.019531 16.019531 L 177.121094 16.019531 L 177.121094 21 L 172.019531 21 Z M 172.019531 16.019531 " clip-rule="nonzero"/></clipPath><clipPath id="aaa515a40f"><path d="M 174.570312 16.019531 C 173.160156 16.019531 172.019531 17.128906 172.019531 18.496094 C 172.019531 19.863281 173.160156 20.972656 174.570312 20.972656 C 175.976562 20.972656 177.121094 19.863281 177.121094 18.496094 C 177.121094 17.128906 175.976562 16.019531 174.570312 16.019531 " clip-rule="nonzero"/></clipPath><clipPath id="1b14a633dd"><path d="M 179.980469 37.691406 L 202.589844 37.691406 L 202.589844 41.636719 L 179.980469 41.636719 Z M 179.980469 37.691406 " clip-rule="nonzero"/></clipPath><clipPath id="080abcbe0d"><path d="M 180.726562 37.691406 L 201.589844 37.691406 C 201.789062 37.691406 201.976562 37.769531 202.117188 37.90625 C 202.257812 38.046875 202.335938 38.238281 202.335938 38.433594 L 202.335938 40.664062 C 202.335938 40.859375 202.257812 41.046875 202.117188 41.1875 C 201.976562 41.328125 201.789062 41.40625 201.589844 41.40625 L 180.726562 41.40625 C 180.527344 41.40625 180.339844 41.328125 180.199219 41.1875 C 180.058594 41.046875 179.980469 40.859375 179.980469 40.664062 L 179.980469 38.433594 C 179.980469 38.238281 180.058594 38.046875 180.199219 37.90625 C 180.339844 37.769531 180.527344 37.691406 180.726562 37.691406 " clip-rule="nonzero"/></clipPath><clipPath id="fa76e8e025"><path d="M 206.109375 37.804688 L 209.644531 37.804688 L 209.644531 41.339844 L 206.109375 41.339844 Z M 206.109375 37.804688 " clip-rule="nonzero"/></clipPath><clipPath id="65c29ca89b"><path d="M 207.867188 37.804688 C 206.898438 37.804688 206.109375 38.589844 206.109375 39.5625 C 206.109375 40.53125 206.898438 41.320312 207.867188 41.320312 C 208.839844 41.320312 209.628906 40.53125 209.628906 39.5625 C 209.628906 38.589844 208.839844 37.804688 207.867188 37.804688 " clip-rule="nonzero"/></clipPath><clipPath id="fba760d2c8"><path d="M 215.328125 37.746094 L 218.976562 37.746094 L 218.976562 41.394531 L 215.328125 41.394531 Z M 215.328125 37.746094 " clip-rule="nonzero"/></clipPath><clipPath id="3b80d060cd"><path d="M 217.140625 37.746094 C 216.140625 37.746094 215.328125 38.558594 215.328125 39.5625 C 215.328125 40.5625 216.140625 41.375 217.140625 41.375 C 218.144531 41.375 218.957031 40.5625 218.957031 39.5625 C 218.957031 38.558594 218.144531 37.746094 217.140625 37.746094 " clip-rule="nonzero"/></clipPath><clipPath id="be0f3eea9b"><path d="M 224.65625 37.691406 L 228.304688 37.691406 L 228.304688 41.339844 L 224.65625 41.339844 Z M 224.65625 37.691406 " clip-rule="nonzero"/></clipPath><clipPath id="c9a0e85322"><path d="M 226.472656 37.691406 C 225.46875 37.691406 224.65625 38.503906 224.65625 39.503906 C 224.65625 40.507812 225.46875 41.320312 226.472656 41.320312 C 227.476562 41.320312 228.289062 40.507812 228.289062 39.503906 C 228.289062 38.503906 227.476562 37.691406 226.472656 37.691406 " clip-rule="nonzero"/></clipPath></defs><g clip-path="url(#42700315b7)"><path fill="#ffffff" d="M 1.132812 0 L 238.867188 0 L 238.867188 52.003906 L 1.132812 52.003906 Z M 1.132812 0 " fill-opacity="1" fill-rule="nonzero"/><path fill="#28272b" d="M 1.132812 0 L 238.867188 0 L 238.867188 52.003906 L 1.132812 52.003906 Z M 1.132812 0 " fill-opacity="1" fill-rule="nonzero"/></g><g clip-path="url(#1d7509b47e)"><g clip-path="url(#53f73ae533)"><g clip-path="url(#f489a0046d)"><g clip-path="url(#cf2c4e0e3b)"><path fill="#0bc65f" d="M 33.894531 26.605469 C 32.523438 26.824219 31.042969 26.492188 29.851562 25.632812 L 24.054688 21.445312 C 22.875 20.59375 22.105469 19.335938 21.882812 17.90625 C 21.660156 16.480469 22.007812 15.054688 22.867188 13.894531 C 23.679688 12.738281 24.933594 11.960938 26.378906 11.730469 C 27.84375 11.515625 29.273438 11.855469 30.421875 12.683594 L 30.988281 13.09375 L 29.21875 15.632812 L 28.605469 15.1875 C 28.113281 14.835938 27.492188 14.691406 26.847656 14.785156 C 26.253906 14.878906 25.730469 15.207031 25.382812 15.699219 C 25 16.21875 24.851562 16.824219 24.945312 17.429688 C 25.042969 18.042969 25.371094 18.578125 25.875 18.941406 L 31.671875 23.128906 C 32.363281 23.628906 33.230469 23.714844 34.007812 23.363281 C 34.023438 23.351562 34.195312 23.261719 34.214844 23.253906 C 34.351562 23.179688 34.5 23.070312 34.644531 22.9375 L 36.726562 25.226562 C 36.398438 25.519531 36.054688 25.769531 35.707031 25.960938 C 35.566406 26.042969 35.375 26.148438 35.179688 26.214844 C 34.773438 26.402344 34.339844 26.535156 33.894531 26.605469 Z M 33.894531 26.605469 " fill-opacity="1" fill-rule="nonzero"/></g></g></g></g><g clip-path="url(#b87a2b5c74)"><g clip-path="url(#f56bbf2ed0)"><g clip-path="url(#21cf1dd6f1)"><g clip-path="url(#f8cf02da05)"><path fill="#0bc65f" d="M 40.625 31.421875 C 39.195312 31.648438 37.765625 31.3125 36.59375 30.464844 L 36.03125 30.058594 L 37.851562 27.554688 L 38.414062 27.960938 C 38.917969 28.324219 39.570312 28.421875 40.148438 28.371094 C 40.753906 28.273438 41.285156 27.941406 41.644531 27.441406 C 42.019531 26.933594 42.167969 26.328125 42.074219 25.71875 C 41.980469 25.109375 41.648438 24.570312 41.144531 24.207031 L 35.347656 20.019531 C 34.851562 19.660156 34.226562 19.511719 33.597656 19.605469 C 33.496094 19.621094 33.398438 19.644531 33.316406 19.679688 C 33.25 19.707031 33.179688 19.734375 33.109375 19.757812 C 32.996094 19.792969 32.902344 19.835938 32.8125 19.894531 C 32.757812 19.941406 32.699219 19.984375 32.636719 20.019531 C 32.53125 20.085938 32.488281 20.121094 32.460938 20.148438 L 30.234375 18 C 30.476562 17.753906 30.714844 17.578125 30.902344 17.457031 C 30.90625 17.453125 30.914062 17.449219 30.917969 17.445312 C 31.273438 17.179688 31.660156 16.980469 32.089844 16.839844 C 32.402344 16.707031 32.753906 16.609375 33.128906 16.550781 C 34.582031 16.335938 36.011719 16.679688 37.167969 17.511719 L 42.964844 21.703125 C 44.144531 22.550781 44.917969 23.808594 45.140625 25.242188 C 45.363281 26.667969 45.011719 28.09375 44.152344 29.253906 C 43.328125 30.410156 42.074219 31.1875 40.648438 31.417969 C 40.636719 31.421875 40.628906 31.421875 40.625 31.421875 Z M 40.625 31.421875 " fill-opacity="1" fill-rule="nonzero"/></g></g></g></g><g clip-path="url(#dc7d481cb1)"><g clip-path="url(#25d9ba4a30)"><g clip-path="url(#505a8bb786)"><g clip-path="url(#09708d281c)"><path fill="#893eff" d="M 12.5 37.449219 L 35.457031 33.78125 L 35.945312 36.835938 L 12.988281 40.5 Z M 12.5 37.449219 " fill-opacity="1" fill-rule="nonzero"/></g></g></g></g><g clip-path="url(#0c9e49e9e6)"><g clip-path="url(#9f428f044b)"><g clip-path="url(#807299aa8c)"><g clip-path="url(#452476010f)"><path fill="#893eff" d="M 33.859375 43.425781 L 17.023438 46.117188 C 14.492188 46.519531 12.101562 44.796875 11.699219 42.269531 L 7.070312 13.277344 C 6.667969 10.753906 8.398438 8.371094 10.929688 7.96875 L 27.765625 5.277344 C 30.296875 4.875 32.6875 6.597656 33.089844 9.121094 L 33.152344 9.519531 L 30.09375 10.007812 L 30.027344 9.613281 C 29.894531 8.769531 29.097656 8.195312 28.253906 8.332031 L 11.417969 11.019531 C 10.574219 11.152344 9.996094 11.949219 10.128906 12.789062 L 14.761719 41.78125 C 14.894531 42.625 15.691406 43.199219 16.535156 43.0625 L 33.371094 40.375 C 34.214844 40.242188 34.792969 39.445312 34.660156 38.605469 L 33.929688 34.027344 L 36.988281 33.539062 L 37.71875 38.117188 C 38.125 40.640625 36.390625 43.023438 33.859375 43.425781 Z M 33.859375 43.425781 " fill-opacity="1" fill-rule="nonzero"/></g></g></g></g><g fill="#893eff" fill-opacity="1"><g transform="translate(52.675956, 33.074865)"><g><path d="M 0.324219 0 L 2.925781 0 C 3.121094 0 3.253906 -0.128906 3.253906 -0.324219 L 3.253906 -12.359375 C 3.253906 -12.71875 3.546875 -13.011719 3.902344 -13.011719 L 12.359375 -13.011719 C 12.71875 -13.011719 13.011719 -12.71875 13.011719 -12.359375 L 13.011719 -0.324219 C 13.011719 -0.128906 13.140625 0 13.335938 0 L 15.9375 0 C 16.132812 0 16.265625 -0.128906 16.265625 -0.324219 L 16.265625 -12.359375 C 16.265625 -12.71875 16.558594 -13.011719 16.914062 -13.011719 L 25.371094 -13.011719 C 25.730469 -13.011719 26.023438 -12.71875 26.023438 -12.359375 L 26.023438 -0.324219 C 26.023438 -0.128906 26.152344 0 26.347656 0 L 28.949219 0 C 29.144531 0 29.277344 -0.128906 29.277344 -0.324219 L 29.277344 -12.945312 C 29.277344 -14.867188 27.878906 -16.265625 25.957031 -16.265625 L 16.328125 -16.265625 C 15.710938 -16.265625 15.125 -16.101562 14.636719 -15.839844 C 14.148438 -16.101562 13.566406 -16.265625 12.945312 -16.265625 L 3.316406 -16.265625 C 1.398438 -16.265625 0 -14.867188 0 -12.945312 L 0 -0.324219 C 0 -0.128906 0.128906 0 0.324219 0 Z M 0.324219 0 "/></g></g></g><g fill="#893eff" fill-opacity="1"><g transform="translate(85.19369, 33.074865)"><g><path d="M 3.316406 0 L 21.144531 0 C 21.339844 0 21.46875 -0.128906 21.46875 -0.324219 L 21.46875 -2.925781 C 21.46875 -3.121094 21.339844 -3.253906 21.144531 -3.253906 L 3.902344 -3.253906 C 3.546875 -3.253906 3.253906 -3.546875 3.253906 -3.902344 L 3.253906 -6.503906 L 19.453125 -6.503906 C 21.371094 -6.503906 22.769531 -7.90625 22.769531 -9.824219 L 22.769531 -12.945312 C 22.769531 -14.867188 21.371094 -16.265625 19.453125 -16.265625 L 3.316406 -16.265625 C 1.398438 -16.265625 0 -14.867188 0 -12.945312 L 0 -3.316406 C 0 -1.398438 1.398438 0 3.316406 0 Z M 3.253906 -9.757812 L 3.253906 -12.359375 C 3.253906 -12.71875 3.546875 -13.011719 3.902344 -13.011719 L 18.867188 -13.011719 C 19.226562 -13.011719 19.515625 -12.71875 19.515625 -12.359375 L 19.515625 -10.410156 C 19.515625 -10.050781 19.226562 -9.757812 18.867188 -9.757812 Z M 3.253906 -9.757812 "/></g></g></g><g fill="#893eff" fill-opacity="1"><g transform="translate(111.207885, 33.074865)"><g><path d="M 3.316406 0 L 21.144531 0 C 21.339844 0 21.46875 -0.128906 21.46875 -0.324219 L 21.46875 -2.925781 C 21.46875 -3.121094 21.339844 -3.253906 21.144531 -3.253906 L 3.902344 -3.253906 C 3.546875 -3.253906 3.253906 -3.546875 3.253906 -3.902344 L 3.253906 -6.503906 L 19.453125 -6.503906 C 21.371094 -6.503906 22.769531 -7.90625 22.769531 -9.824219 L 22.769531 -12.945312 C 22.769531 -14.867188 21.371094 -16.265625 19.453125 -16.265625 L 3.316406 -16.265625 C 1.398438 -16.265625 0 -14.867188 0 -12.945312 L 0 -3.316406 C 0 -1.398438 1.398438 0 3.316406 0 Z M 3.253906 -9.757812 L 3.253906 -12.359375 C 3.253906 -12.71875 3.546875 -13.011719 3.902344 -13.011719 L 18.867188 -13.011719 C 19.226562 -13.011719 19.515625 -12.71875 19.515625 -12.359375 L 19.515625 -10.410156 C 19.515625 -10.050781 19.226562 -9.757812 18.867188 -9.757812 Z M 3.253906 -9.757812 "/></g></g></g><g fill="#893eff" fill-opacity="1"><g transform="translate(137.22208, 33.074865)"><g/></g></g><g fill="#893eff" fill-opacity="1"><g transform="translate(146.977407, 33.074865)"><g><path d="M 3.316406 0 L 22.445312 0 C 22.640625 0 22.769531 -0.128906 22.769531 -0.324219 L 22.769531 -2.925781 C 22.769531 -3.121094 22.640625 -3.253906 22.445312 -3.253906 L 3.902344 -3.253906 C 3.546875 -3.253906 3.253906 -3.546875 3.253906 -3.902344 L 3.253906 -15.9375 C 3.253906 -16.132812 3.121094 -16.265625 2.925781 -16.265625 L 0.324219 -16.265625 C 0.128906 -16.265625 0 -16.132812 0 -15.9375 L 0 -3.316406 C 0 -1.398438 1.398438 0 3.316406 0 Z M 3.316406 0 "/></g></g></g><g fill="#893eff" fill-opacity="1"><g transform="translate(172.991602, 33.074865)"><g><path d="M 0.324219 0 L 2.925781 0 C 3.121094 0 3.253906 -0.128906 3.253906 -0.324219 L 3.253906 -11.058594 C 3.253906 -11.253906 3.121094 -11.386719 2.925781 -11.386719 L 0.324219 -11.386719 C 0.128906 -11.386719 0 -11.253906 0 -11.058594 L 0 -0.324219 C 0 -0.128906 0.128906 0 0.324219 0 Z M 0.324219 -13.011719 L 2.925781 -13.011719 C 3.121094 -13.011719 3.253906 -13.140625 3.253906 -13.335938 L 3.253906 -15.9375 C 3.253906 -16.132812 3.121094 -16.265625 2.925781 -16.265625 L 0.324219 -16.265625 C 0.128906 -16.265625 0 -16.132812 0 -15.9375 L 0 -13.335938 C 0 -13.140625 0.128906 -13.011719 0.324219 -13.011719 Z M 0.324219 -13.011719 "/></g></g></g><g fill="#893eff" fill-opacity="1"><g transform="translate(179.495142, 33.074865)"><g><path d="M 0.324219 0 L 2.925781 0 C 3.121094 0 3.253906 -0.128906 3.253906 -0.324219 L 3.253906 -12.359375 C 3.253906 -12.71875 3.546875 -13.011719 3.902344 -13.011719 L 18.867188 -13.011719 C 19.226562 -13.011719 19.515625 -12.71875 19.515625 -12.359375 L 19.515625 -0.324219 C 19.515625 -0.128906 19.648438 0 19.84375 0 L 22.445312 0 C 22.640625 0 22.769531 -0.128906 22.769531 -0.324219 L 22.769531 -12.945312 C 22.769531 -14.867188 21.371094 -16.265625 19.453125 -16.265625 L 3.316406 -16.265625 C 1.398438 -16.265625 0 -14.867188 0 -12.945312 L 0 -0.324219 C 0 -0.128906 0.128906 0 0.324219 0 Z M 0.324219 0 "/></g></g></g><g fill="#893eff" fill-opacity="1"><g transform="translate(205.509337, 33.074865)"><g><path d="M 0.324219 0 L 2.925781 0 C 3.121094 0 3.253906 -0.128906 3.253906 -0.324219 L 3.253906 -6.503906 L 18.996094 -6.503906 C 19.355469 -6.503906 19.648438 -6.214844 19.648438 -5.855469 L 19.648438 -0.324219 C 19.648438 -0.128906 19.777344 0 19.972656 0 L 22.574219 0 C 22.769531 0 22.898438 -0.128906 22.898438 -0.324219 L 22.898438 -6.441406 C 22.898438 -7.839844 22.183594 -8.945312 21.046875 -9.464844 L 23.257812 -15.777344 C 23.355469 -16.035156 23.160156 -16.265625 22.898438 -16.265625 L 20.070312 -16.265625 C 19.941406 -16.265625 19.808594 -16.167969 19.777344 -16.070312 L 17.566406 -9.757812 L 3.253906 -9.757812 L 3.253906 -15.9375 C 3.253906 -16.132812 3.121094 -16.265625 2.925781 -16.265625 L 0.324219 -16.265625 C 0.128906 -16.265625 0 -16.132812 0 -15.9375 L 0 -0.324219 C 0 -0.128906 0.128906 0 0.324219 0 Z M 0.324219 0 "/></g></g></g><g clip-path="url(#317687d39a)"><g clip-path="url(#aaa515a40f)"><path fill="#0bc65f" d="M 172.019531 16.019531 L 177.121094 16.019531 L 177.121094 20.960938 L 172.019531 20.960938 Z M 172.019531 16.019531 " fill-opacity="1" fill-rule="nonzero"/></g></g><g clip-path="url(#1b14a633dd)"><g clip-path="url(#080abcbe0d)"><path fill="#0bc65f" d="M 179.980469 37.691406 L 202.230469 37.691406 L 202.230469 41.277344 L 179.980469 41.277344 Z M 179.980469 37.691406 " fill-opacity="1" fill-rule="nonzero"/></g></g><g clip-path="url(#fa76e8e025)"><g clip-path="url(#65c29ca89b)"><path fill="#893eff" d="M 206.109375 37.804688 L 209.644531 37.804688 L 209.644531 41.339844 L 206.109375 41.339844 Z M 206.109375 37.804688 " fill-opacity="1" fill-rule="nonzero"/></g></g><g clip-path="url(#fba760d2c8)"><g clip-path="url(#3b80d060cd)"><path fill="#0bc65f" d="M 215.328125 37.746094 L 218.976562 37.746094 L 218.976562 41.394531 L 215.328125 41.394531 Z M 215.328125 37.746094 " fill-opacity="1" fill-rule="nonzero"/></g></g><g clip-path="url(#be0f3eea9b)"><g clip-path="url(#c9a0e85322)"><path fill="#893eff" d="M 224.65625 37.691406 L 228.304688 37.691406 L 228.304688 41.339844 L 224.65625 41.339844 Z M 224.65625 37.691406 " fill-opacity="1" fill-rule="nonzero"/></g></g><g fill="#e5dfef" fill-opacity="1"><g transform="translate(180.032851, 47.97678)"><g><path d="M 1.484375 0.03125 C 1.242188 0.03125 1.023438 -0.00390625 0.828125 -0.078125 C 0.640625 -0.160156 0.488281 -0.273438 0.375 -0.421875 C 0.257812 -0.578125 0.203125 -0.765625 0.203125 -0.984375 L 1.046875 -0.984375 C 1.054688 -0.859375 1.097656 -0.765625 1.171875 -0.703125 C 1.242188 -0.640625 1.335938 -0.609375 1.453125 -0.609375 C 1.578125 -0.609375 1.671875 -0.632812 1.734375 -0.6875 C 1.804688 -0.75 1.84375 -0.828125 1.84375 -0.921875 C 1.84375 -1.003906 1.8125 -1.070312 1.75 -1.125 C 1.695312 -1.175781 1.628906 -1.21875 1.546875 -1.25 C 1.472656 -1.28125 1.363281 -1.320312 1.21875 -1.375 C 1.007812 -1.4375 0.835938 -1.5 0.703125 -1.5625 C 0.566406 -1.632812 0.445312 -1.734375 0.34375 -1.859375 C 0.25 -1.984375 0.203125 -2.148438 0.203125 -2.359375 C 0.203125 -2.660156 0.3125 -2.898438 0.53125 -3.078125 C 0.757812 -3.253906 1.050781 -3.34375 1.40625 -3.34375 C 1.769531 -3.34375 2.0625 -3.253906 2.28125 -3.078125 C 2.5 -2.898438 2.617188 -2.660156 2.640625 -2.359375 L 1.765625 -2.359375 C 1.765625 -2.460938 1.726562 -2.546875 1.65625 -2.609375 C 1.582031 -2.671875 1.488281 -2.703125 1.375 -2.703125 C 1.28125 -2.703125 1.203125 -2.675781 1.140625 -2.625 C 1.085938 -2.570312 1.0625 -2.492188 1.0625 -2.390625 C 1.0625 -2.285156 1.109375 -2.203125 1.203125 -2.140625 C 1.304688 -2.085938 1.460938 -2.023438 1.671875 -1.953125 C 1.890625 -1.878906 2.0625 -1.8125 2.1875 -1.75 C 2.320312 -1.6875 2.4375 -1.59375 2.53125 -1.46875 C 2.632812 -1.34375 2.6875 -1.179688 2.6875 -0.984375 C 2.6875 -0.796875 2.632812 -0.625 2.53125 -0.46875 C 2.4375 -0.3125 2.300781 -0.1875 2.125 -0.09375 C 1.945312 -0.0078125 1.734375 0.03125 1.484375 0.03125 Z M 1.484375 0.03125 "/></g></g></g><g fill="#e5dfef" fill-opacity="1"><g transform="translate(182.917295, 47.97678)"><g><path d="M 2.75 -1.34375 C 2.75 -1.269531 2.75 -1.191406 2.75 -1.109375 L 0.921875 -1.109375 C 0.941406 -0.953125 0.992188 -0.828125 1.078125 -0.734375 C 1.171875 -0.648438 1.285156 -0.609375 1.421875 -0.609375 C 1.617188 -0.609375 1.757812 -0.695312 1.84375 -0.875 L 2.703125 -0.875 C 2.648438 -0.695312 2.566406 -0.539062 2.453125 -0.40625 C 2.335938 -0.269531 2.191406 -0.160156 2.015625 -0.078125 C 1.847656 -0.00390625 1.660156 0.03125 1.453125 0.03125 C 1.191406 0.03125 0.960938 -0.0195312 0.765625 -0.125 C 0.566406 -0.238281 0.410156 -0.394531 0.296875 -0.59375 C 0.179688 -0.800781 0.125 -1.039062 0.125 -1.3125 C 0.125 -1.582031 0.179688 -1.816406 0.296875 -2.015625 C 0.410156 -2.222656 0.566406 -2.378906 0.765625 -2.484375 C 0.960938 -2.597656 1.191406 -2.65625 1.453125 -2.65625 C 1.703125 -2.65625 1.925781 -2.597656 2.125 -2.484375 C 2.320312 -2.378906 2.472656 -2.226562 2.578125 -2.03125 C 2.691406 -1.84375 2.75 -1.613281 2.75 -1.34375 Z M 1.9375 -1.5625 C 1.9375 -1.695312 1.890625 -1.804688 1.796875 -1.890625 C 1.703125 -1.972656 1.582031 -2.015625 1.4375 -2.015625 C 1.3125 -2.015625 1.203125 -1.972656 1.109375 -1.890625 C 1.015625 -1.816406 0.957031 -1.707031 0.9375 -1.5625 Z M 1.9375 -1.5625 "/></g></g></g><g fill="#e5dfef" fill-opacity="1"><g transform="translate(185.806433, 47.97678)"><g><path d="M 2.875 -2.609375 L 2.875 0 L 2.078125 0 L 2.078125 -0.359375 C 1.992188 -0.242188 1.878906 -0.148438 1.734375 -0.078125 C 1.597656 -0.00390625 1.445312 0.03125 1.28125 0.03125 C 1.082031 0.03125 0.90625 -0.0078125 0.75 -0.09375 C 0.59375 -0.1875 0.472656 -0.316406 0.390625 -0.484375 C 0.304688 -0.660156 0.265625 -0.863281 0.265625 -1.09375 L 0.265625 -2.609375 L 1.0625 -2.609375 L 1.0625 -1.203125 C 1.0625 -1.023438 1.109375 -0.882812 1.203125 -0.78125 C 1.296875 -0.6875 1.414062 -0.640625 1.5625 -0.640625 C 1.71875 -0.640625 1.84375 -0.6875 1.9375 -0.78125 C 2.03125 -0.882812 2.078125 -1.023438 2.078125 -1.203125 L 2.078125 -2.609375 Z M 2.875 -2.609375 "/></g></g></g><g fill="#e5dfef" fill-opacity="1"><g transform="translate(188.967597, 47.97678)"><g/></g></g><g fill="#e5dfef" fill-opacity="1"><g transform="translate(189.961911, 47.97678)"><g><path d="M 1.09375 -3.46875 L 1.09375 0 L 0.296875 0 L 0.296875 -3.46875 Z M 1.09375 -3.46875 "/></g></g></g><g fill="#e5dfef" fill-opacity="1"><g transform="translate(191.345506, 47.97678)"><g><path d="M 0.6875 -2.890625 C 0.550781 -2.890625 0.4375 -2.929688 0.34375 -3.015625 C 0.257812 -3.097656 0.21875 -3.195312 0.21875 -3.3125 C 0.21875 -3.4375 0.257812 -3.539062 0.34375 -3.625 C 0.4375 -3.707031 0.550781 -3.75 0.6875 -3.75 C 0.832031 -3.75 0.945312 -3.707031 1.03125 -3.625 C 1.125 -3.539062 1.171875 -3.4375 1.171875 -3.3125 C 1.171875 -3.195312 1.125 -3.097656 1.03125 -3.015625 C 0.945312 -2.929688 0.832031 -2.890625 0.6875 -2.890625 Z M 1.09375 -2.609375 L 1.09375 0 L 0.296875 0 L 0.296875 -2.609375 Z M 1.09375 -2.609375 "/></g></g></g><g fill="#e5dfef" fill-opacity="1"><g transform="translate(192.729101, 47.97678)"><g><path d="M 1.890625 -2.640625 C 2.191406 -2.640625 2.429688 -2.539062 2.609375 -2.34375 C 2.796875 -2.144531 2.890625 -1.875 2.890625 -1.53125 L 2.890625 0 L 2.09375 0 L 2.09375 -1.421875 C 2.09375 -1.597656 2.046875 -1.734375 1.953125 -1.828125 C 1.867188 -1.921875 1.75 -1.96875 1.59375 -1.96875 C 1.4375 -1.96875 1.3125 -1.921875 1.21875 -1.828125 C 1.132812 -1.734375 1.09375 -1.597656 1.09375 -1.421875 L 1.09375 0 L 0.296875 0 L 0.296875 -2.609375 L 1.09375 -2.609375 L 1.09375 -2.265625 C 1.175781 -2.378906 1.285156 -2.46875 1.421875 -2.53125 C 1.554688 -2.601562 1.710938 -2.640625 1.890625 -2.640625 Z M 1.890625 -2.640625 "/></g></g></g><g fill="#e5dfef" fill-opacity="1"><g transform="translate(195.890265, 47.97678)"><g><path d="M 1.890625 0 L 1.09375 -1.09375 L 1.09375 0 L 0.296875 0 L 0.296875 -3.46875 L 1.09375 -3.46875 L 1.09375 -1.546875 L 1.890625 -2.609375 L 2.875 -2.609375 L 1.78125 -1.296875 L 2.890625 0 Z M 1.890625 0 "/></g></g></g><g fill="#e5dfef" fill-opacity="1"><g transform="translate(198.788778, 47.97678)"><g/></g></g><g fill="#e5dfef" fill-opacity="1"><g transform="translate(199.783092, 47.97678)"><g><path d="M 1.890625 -2.640625 C 2.191406 -2.640625 2.429688 -2.539062 2.609375 -2.34375 C 2.796875 -2.144531 2.890625 -1.875 2.890625 -1.53125 L 2.890625 0 L 2.09375 0 L 2.09375 -1.421875 C 2.09375 -1.597656 2.046875 -1.734375 1.953125 -1.828125 C 1.867188 -1.921875 1.75 -1.96875 1.59375 -1.96875 C 1.4375 -1.96875 1.3125 -1.921875 1.21875 -1.828125 C 1.132812 -1.734375 1.09375 -1.597656 1.09375 -1.421875 L 1.09375 0 L 0.296875 0 L 0.296875 -2.609375 L 1.09375 -2.609375 L 1.09375 -2.265625 C 1.175781 -2.378906 1.285156 -2.46875 1.421875 -2.53125 C 1.554688 -2.601562 1.710938 -2.640625 1.890625 -2.640625 Z M 1.890625 -2.640625 "/></g></g></g><g fill="#e5dfef" fill-opacity="1"><g transform="translate(202.944256, 47.97678)"><g><path d="M 0.125 -1.3125 C 0.125 -1.582031 0.175781 -1.816406 0.28125 -2.015625 C 0.382812 -2.222656 0.523438 -2.378906 0.703125 -2.484375 C 0.878906 -2.597656 1.070312 -2.65625 1.28125 -2.65625 C 1.46875 -2.65625 1.628906 -2.613281 1.765625 -2.53125 C 1.910156 -2.457031 2.019531 -2.363281 2.09375 -2.25 L 2.09375 -2.609375 L 2.890625 -2.609375 L 2.890625 0 L 2.09375 0 L 2.09375 -0.375 C 2.007812 -0.25 1.898438 -0.148438 1.765625 -0.078125 C 1.628906 -0.00390625 1.46875 0.03125 1.28125 0.03125 C 1.070312 0.03125 0.878906 -0.0195312 0.703125 -0.125 C 0.523438 -0.238281 0.382812 -0.394531 0.28125 -0.59375 C 0.175781 -0.800781 0.125 -1.039062 0.125 -1.3125 Z M 2.09375 -1.3125 C 2.09375 -1.507812 2.035156 -1.664062 1.921875 -1.78125 C 1.816406 -1.894531 1.679688 -1.953125 1.515625 -1.953125 C 1.359375 -1.953125 1.222656 -1.894531 1.109375 -1.78125 C 1.003906 -1.664062 0.953125 -1.507812 0.953125 -1.3125 C 0.953125 -1.113281 1.003906 -0.953125 1.109375 -0.828125 C 1.222656 -0.710938 1.359375 -0.65625 1.515625 -0.65625 C 1.679688 -0.65625 1.816406 -0.710938 1.921875 -0.828125 C 2.035156 -0.953125 2.09375 -1.113281 2.09375 -1.3125 Z M 2.09375 -1.3125 "/></g></g></g><g fill="#e5dfef" fill-opacity="1"><g transform="translate(206.12887, 47.97678)"><g/></g></g><g fill="#e5dfef" fill-opacity="1"><g transform="translate(207.123184, 47.97678)"><g><path d="M 1.359375 0.03125 C 1.128906 0.03125 0.925781 -0.00390625 0.75 -0.078125 C 0.570312 -0.160156 0.429688 -0.269531 0.328125 -0.40625 C 0.222656 -0.539062 0.164062 -0.691406 0.15625 -0.859375 L 0.9375 -0.859375 C 0.945312 -0.765625 0.988281 -0.6875 1.0625 -0.625 C 1.144531 -0.570312 1.238281 -0.546875 1.34375 -0.546875 C 1.445312 -0.546875 1.523438 -0.566406 1.578125 -0.609375 C 1.628906 -0.648438 1.65625 -0.703125 1.65625 -0.765625 C 1.65625 -0.835938 1.613281 -0.890625 1.53125 -0.921875 C 1.457031 -0.960938 1.332031 -1.003906 1.15625 -1.046875 C 0.96875 -1.085938 0.8125 -1.132812 0.6875 -1.1875 C 0.5625 -1.238281 0.453125 -1.316406 0.359375 -1.421875 C 0.273438 -1.523438 0.234375 -1.664062 0.234375 -1.84375 C 0.234375 -1.988281 0.273438 -2.125 0.359375 -2.25 C 0.441406 -2.375 0.5625 -2.472656 0.71875 -2.546875 C 0.882812 -2.617188 1.078125 -2.65625 1.296875 -2.65625 C 1.628906 -2.65625 1.890625 -2.570312 2.078125 -2.40625 C 2.265625 -2.25 2.375 -2.035156 2.40625 -1.765625 L 1.65625 -1.765625 C 1.644531 -1.859375 1.601562 -1.929688 1.53125 -1.984375 C 1.46875 -2.035156 1.382812 -2.0625 1.28125 -2.0625 C 1.1875 -2.0625 1.113281 -2.039062 1.0625 -2 C 1.007812 -1.96875 0.984375 -1.921875 0.984375 -1.859375 C 0.984375 -1.785156 1.019531 -1.726562 1.09375 -1.6875 C 1.175781 -1.644531 1.304688 -1.609375 1.484375 -1.578125 C 1.671875 -1.523438 1.828125 -1.472656 1.953125 -1.421875 C 2.078125 -1.378906 2.179688 -1.300781 2.265625 -1.1875 C 2.359375 -1.082031 2.410156 -0.941406 2.421875 -0.765625 C 2.421875 -0.609375 2.375 -0.46875 2.28125 -0.34375 C 2.195312 -0.226562 2.070312 -0.132812 1.90625 -0.0625 C 1.75 0 1.566406 0.03125 1.359375 0.03125 Z M 1.359375 0.03125 "/></g></g></g><g fill="#e5dfef" fill-opacity="1"><g transform="translate(209.740289, 47.97678)"><g><path d="M 2.875 -2.609375 L 2.875 0 L 2.078125 0 L 2.078125 -0.359375 C 1.992188 -0.242188 1.878906 -0.148438 1.734375 -0.078125 C 1.597656 -0.00390625 1.445312 0.03125 1.28125 0.03125 C 1.082031 0.03125 0.90625 -0.0078125 0.75 -0.09375 C 0.59375 -0.1875 0.472656 -0.316406 0.390625 -0.484375 C 0.304688 -0.660156 0.265625 -0.863281 0.265625 -1.09375 L 0.265625 -2.609375 L 1.0625 -2.609375 L 1.0625 -1.203125 C 1.0625 -1.023438 1.109375 -0.882812 1.203125 -0.78125 C 1.296875 -0.6875 1.414062 -0.640625 1.5625 -0.640625 C 1.71875 -0.640625 1.84375 -0.6875 1.9375 -0.78125 C 2.03125 -0.882812 2.078125 -1.023438 2.078125 -1.203125 L 2.078125 -2.609375 Z M 2.875 -2.609375 "/></g></g></g><g fill="#e5dfef" fill-opacity="1"><g transform="translate(212.901453, 47.97678)"><g><path d="M 0.125 -1.3125 C 0.125 -1.582031 0.175781 -1.816406 0.28125 -2.015625 C 0.382812 -2.222656 0.523438 -2.378906 0.703125 -2.484375 C 0.878906 -2.597656 1.070312 -2.65625 1.28125 -2.65625 C 1.46875 -2.65625 1.628906 -2.613281 1.765625 -2.53125 C 1.910156 -2.457031 2.019531 -2.363281 2.09375 -2.25 L 2.09375 -2.609375 L 2.890625 -2.609375 L 2.890625 0 L 2.09375 0 L 2.09375 -0.375 C 2.007812 -0.25 1.898438 -0.148438 1.765625 -0.078125 C 1.628906 -0.00390625 1.46875 0.03125 1.28125 0.03125 C 1.070312 0.03125 0.878906 -0.0195312 0.703125 -0.125 C 0.523438 -0.238281 0.382812 -0.394531 0.28125 -0.59375 C 0.175781 -0.800781 0.125 -1.039062 0.125 -1.3125 Z M 2.09375 -1.3125 C 2.09375 -1.507812 2.035156 -1.664062 1.921875 -1.78125 C 1.816406 -1.894531 1.679688 -1.953125 1.515625 -1.953125 C 1.359375 -1.953125 1.222656 -1.894531 1.109375 -1.78125 C 1.003906 -1.664062 0.953125 -1.507812 0.953125 -1.3125 C 0.953125 -1.113281 1.003906 -0.953125 1.109375 -0.828125 C 1.222656 -0.710938 1.359375 -0.65625 1.515625 -0.65625 C 1.679688 -0.65625 1.816406 -0.710938 1.921875 -0.828125 C 2.035156 -0.953125 2.09375 -1.113281 2.09375 -1.3125 Z M 2.09375 -1.3125 "/></g></g></g><g fill="#e5dfef" fill-opacity="1"><g transform="translate(216.086067, 47.97678)"><g/></g></g><g fill="#e5dfef" fill-opacity="1"><g transform="translate(217.080381, 47.97678)"><g><path d="M 1.09375 -2.25 C 1.164062 -2.363281 1.269531 -2.457031 1.40625 -2.53125 C 1.550781 -2.613281 1.71875 -2.65625 1.90625 -2.65625 C 2.113281 -2.65625 2.304688 -2.597656 2.484375 -2.484375 C 2.660156 -2.378906 2.796875 -2.222656 2.890625 -2.015625 C 2.992188 -1.816406 3.046875 -1.582031 3.046875 -1.3125 C 3.046875 -1.039062 2.992188 -0.800781 2.890625 -0.59375 C 2.796875 -0.394531 2.660156 -0.238281 2.484375 -0.125 C 2.304688 -0.0195312 2.113281 0.03125 1.90625 0.03125 C 1.71875 0.03125 1.550781 -0.00390625 1.40625 -0.078125 C 1.269531 -0.148438 1.164062 -0.242188 1.09375 -0.359375 L 1.09375 0 L 0.296875 0 L 0.296875 -3.46875 L 1.09375 -3.46875 Z M 2.234375 -1.3125 C 2.234375 -1.507812 2.175781 -1.664062 2.0625 -1.78125 C 1.957031 -1.894531 1.820312 -1.953125 1.65625 -1.953125 C 1.5 -1.953125 1.363281 -1.894531 1.25 -1.78125 C 1.144531 -1.664062 1.09375 -1.507812 1.09375 -1.3125 C 1.09375 -1.113281 1.144531 -0.953125 1.25 -0.828125 C 1.363281 -0.710938 1.5 -0.65625 1.65625 -0.65625 C 1.820312 -0.65625 1.957031 -0.710938 2.0625 -0.828125 C 2.175781 -0.953125 2.234375 -1.113281 2.234375 -1.3125 Z M 2.234375 -1.3125 "/></g></g></g><g fill="#e5dfef" fill-opacity="1"><g transform="translate(220.264994, 47.97678)"><g><path d="M 0.6875 -2.890625 C 0.550781 -2.890625 0.4375 -2.929688 0.34375 -3.015625 C 0.257812 -3.097656 0.21875 -3.195312 0.21875 -3.3125 C 0.21875 -3.4375 0.257812 -3.539062 0.34375 -3.625 C 0.4375 -3.707031 0.550781 -3.75 0.6875 -3.75 C 0.832031 -3.75 0.945312 -3.707031 1.03125 -3.625 C 1.125 -3.539062 1.171875 -3.4375 1.171875 -3.3125 C 1.171875 -3.195312 1.125 -3.097656 1.03125 -3.015625 C 0.945312 -2.929688 0.832031 -2.890625 0.6875 -2.890625 Z M 1.09375 -2.609375 L 1.09375 0 L 0.296875 0 L 0.296875 -2.609375 Z M 1.09375 -2.609375 "/></g></g></g><g fill="#e5dfef" fill-opacity="1"><g transform="translate(221.648589, 47.97678)"><g><path d="M 1.484375 0.03125 C 1.222656 0.03125 0.988281 -0.0195312 0.78125 -0.125 C 0.582031 -0.238281 0.421875 -0.394531 0.296875 -0.59375 C 0.179688 -0.800781 0.125 -1.039062 0.125 -1.3125 C 0.125 -1.582031 0.179688 -1.816406 0.296875 -2.015625 C 0.421875 -2.222656 0.585938 -2.378906 0.796875 -2.484375 C 1.003906 -2.597656 1.234375 -2.65625 1.484375 -2.65625 C 1.742188 -2.65625 1.976562 -2.597656 2.1875 -2.484375 C 2.394531 -2.378906 2.554688 -2.222656 2.671875 -2.015625 C 2.785156 -1.816406 2.84375 -1.582031 2.84375 -1.3125 C 2.84375 -1.039062 2.78125 -0.800781 2.65625 -0.59375 C 2.539062 -0.394531 2.378906 -0.238281 2.171875 -0.125 C 1.960938 -0.0195312 1.734375 0.03125 1.484375 0.03125 Z M 1.484375 -0.65625 C 1.640625 -0.65625 1.769531 -0.710938 1.875 -0.828125 C 1.976562 -0.941406 2.03125 -1.101562 2.03125 -1.3125 C 2.03125 -1.519531 1.976562 -1.675781 1.875 -1.78125 C 1.769531 -1.894531 1.640625 -1.953125 1.484375 -1.953125 C 1.328125 -1.953125 1.195312 -1.894531 1.09375 -1.78125 C 1 -1.675781 0.953125 -1.519531 0.953125 -1.3125 C 0.953125 -1.101562 1 -0.941406 1.09375 -0.828125 C 1.195312 -0.710938 1.328125 -0.65625 1.484375 -0.65625 Z M 1.484375 -0.65625 "/></g></g></g></svg>